<svg width="400" height="271" viewBox="0 0 400 271" fill="none" xmlns="http://www.w3.org/2000/svg">
<g clip-path="url(#clip0_2029_12079)">
<path d="M365.89 94.7082C365.47 95.0531 365.05 95.3831 364.62 95.708H258.567C257.777 95.3831 256.99 95.0498 256.207 94.7082C245.011 89.8358 234.59 83.3477 225.277 75.4511C219.093 70.2119 213.403 64.8027 209.279 59.7335C203.525 52.6596 198.226 44.9508 195.761 36.1671C193.302 27.3835 194.036 17.315 199.531 10.0311C201.232 7.79049 203.323 5.87512 205.705 4.37698C206.1 4.12702 206.5 3.88706 206.909 3.66209C213.498 -0.0373414 221.812 -0.937209 229.231 0.977499C239.855 3.72208 248.683 11.3859 254.982 20.3745C261.281 29.3582 265.371 39.6766 269.4 49.88C273.489 31.6678 285.872 15.3553 302.6 7.06157C319.322 -1.23217 340.099 -1.13218 356.467 7.85145C361.617 10.6952 366.269 14.3594 370.24 18.6998C370.634 19.1247 371.02 19.5597 371.399 19.9996C379.383 29.2432 384.377 41.0814 384.787 53.2895C385.312 69.0171 378.023 84.8147 365.89 94.7082Z" fill="#F2F2F2"/>
<path d="M262.806 95.708H261.306C261.286 95.373 261.261 95.0431 261.231 94.7081C260.707 88.1689 259.609 81.6883 257.952 75.3411C254.148 60.8502 247.651 47.2047 238.799 35.1172C229.973 22.991 218.847 12.7207 206.054 4.89181C205.961 4.8382 205.881 4.76396 205.82 4.67474C205.759 4.58551 205.72 4.48366 205.705 4.37689C205.68 4.23729 205.696 4.0936 205.75 3.96258C205.804 3.83156 205.894 3.7186 206.01 3.63686C206.126 3.55513 206.262 3.50798 206.404 3.50093C206.545 3.49387 206.686 3.5272 206.809 3.59701C206.844 3.6169 206.877 3.63859 206.909 3.662C214.157 8.0796 220.885 13.2983 226.966 19.2196C237.844 29.8311 246.616 42.4055 252.817 56.279C258.289 68.4295 261.64 81.4269 262.726 94.7081C262.756 95.0431 262.781 95.378 262.806 95.708Z" fill="white"/>
<path d="M371.399 19.9998C371.389 20.0054 371.377 20.0088 371.364 20.0097C370.27 20.2097 369.17 20.4197 368.08 20.6447C359.134 22.4819 350.376 25.1411 341.919 28.5884C333.484 32.0309 325.37 36.2132 317.672 41.0865C309.965 45.9573 302.697 51.4908 295.951 57.624C289.205 63.7485 283.016 70.4605 277.459 77.681C273.305 83.0909 269.528 88.7801 266.155 94.7084C265.966 95.0383 265.78 95.3733 265.595 95.7082H263.881C264.061 95.3733 264.246 95.0383 264.436 94.7084C268.516 87.4444 273.195 80.5332 278.424 74.0465C284.206 66.8676 290.615 60.2174 297.576 54.1745C304.492 48.1658 311.915 42.7665 319.762 38.037C327.642 33.2884 335.926 29.2466 344.518 25.9588C352.857 22.7712 361.465 20.3417 370.24 18.7C370.484 18.655 370.724 18.61 370.969 18.565C371.904 18.395 372.304 19.8048 371.399 19.9998Z" fill="white"/>
<path d="M98.8247 98.68C101.492 93.6454 101.932 87.0881 98.6157 82.4554C96.6417 79.6977 93.5595 77.8874 90.3254 76.8664C87.0914 75.8453 83.6797 75.5452 80.2974 75.2971C76.9492 75.0514 73.5415 74.8548 70.2708 75.6121C67.0001 76.3693 63.8321 78.2193 62.2388 81.1743C59.5472 86.1663 61.9991 92.5673 60.0222 97.8829C58.208 102.761 53.0446 105.613 47.9689 106.764C42.8931 107.915 37.5954 107.792 32.5171 108.932C27.4389 110.072 22.2669 112.897 20.4205 117.763C19.0853 121.282 19.7487 125.335 21.5081 128.662C23.2674 131.99 26.0228 134.683 28.9475 137.052C33.3108 140.585 38.4155 143.612 44.0218 143.918C49.929 144.241 55.705 141.429 59.9567 137.315C64.2085 133.201 67.103 127.885 69.4156 122.44C70.8827 118.986 72.2689 115.268 75.2089 112.935C77.3693 111.221 80.1171 110.47 82.7818 109.76L85.7992 108.955C88.5335 108.24 91.0925 106.973 93.3187 105.232C95.5449 103.49 97.3913 101.312 98.7443 98.8306C98.7713 98.7805 98.7981 98.7303 98.8247 98.68Z" fill="#2F2E41"/>
<path d="M75.028 264.292H68.8995L65.9834 240.652H75.0295L75.028 264.292Z" fill="#FFB8B8"/>
<path d="M64.5214 262.541H76.3415V269.983H57.0791C57.0791 269.006 57.2716 268.038 57.6456 267.135C58.0196 266.232 58.5678 265.412 59.2589 264.721C59.95 264.03 60.7704 263.482 61.6734 263.108C62.5763 262.734 63.5441 262.541 64.5214 262.541Z" fill="#2F2E41"/>
<path d="M126.02 264.292H119.892L116.976 240.652H126.022L126.02 264.292Z" fill="#FFB8B8"/>
<path d="M115.514 262.541H127.334V269.983H108.071C108.071 269.006 108.264 268.038 108.638 267.135C109.012 266.232 109.56 265.412 110.251 264.721C110.942 264.03 111.763 263.482 112.666 263.108C113.568 262.734 114.536 262.541 115.514 262.541Z" fill="#2F2E41"/>
<path d="M86.8097 245.502C86.7242 245.502 86.6388 245.498 86.5538 245.489L61.6189 242.817C61.2877 242.782 60.9679 242.676 60.6807 242.507C60.3936 242.338 60.1456 242.11 59.9535 241.838C59.7613 241.566 59.6292 241.257 59.5661 240.93C59.503 240.603 59.5103 240.266 59.5875 239.942L81.6654 155.97C81.7688 155.542 81.9895 155.152 82.3027 154.844C82.6159 154.535 83.009 154.321 83.4378 154.224L103.919 148.514C104.329 148.424 104.757 148.445 105.156 148.576C105.556 148.706 105.914 148.941 106.193 149.255C119.361 164.108 129.284 197.034 136.801 238.534C136.858 238.847 136.851 239.169 136.779 239.479C136.708 239.789 136.574 240.082 136.386 240.338C136.197 240.595 135.959 240.811 135.685 240.972C135.411 241.134 135.107 241.238 134.791 241.279L114.36 243.887C113.781 243.963 113.194 243.818 112.716 243.483C112.237 243.147 111.902 242.645 111.775 242.074L101.835 197.757C101.743 197.349 101.515 196.985 101.187 196.725C100.859 196.466 100.452 196.327 100.034 196.332C99.616 196.337 99.2124 196.485 98.8906 196.752C98.5689 197.019 98.3486 197.388 98.2666 197.798L89.1029 243.616C88.9991 244.148 88.7135 244.627 88.2951 244.971C87.8766 245.315 87.3515 245.503 86.8097 245.502Z" fill="#2F2E41"/>
<path d="M83.0169 110.211C89.7982 110.211 95.2956 104.713 95.2956 97.932C95.2956 91.1507 89.7982 85.6533 83.0169 85.6533C76.2356 85.6533 70.7383 91.1507 70.7383 97.932C70.7383 104.713 76.2356 110.211 83.0169 110.211Z" fill="#FFB8B8"/>
<path d="M82.6739 156.206C82.1578 156.205 81.6562 156.034 81.2474 155.719C80.8386 155.404 80.5454 154.962 80.4136 154.463L73.0269 126.713C72.4937 124.719 72.7145 122.598 73.647 120.757C74.5795 118.915 76.1582 117.482 78.0811 116.732C84.0272 114.411 89.6922 113.55 94.9187 114.172C99.564 114.726 105.294 142.227 104.915 142.813L106.748 148.313C106.852 148.624 106.89 148.955 106.858 149.282C106.826 149.609 106.725 149.926 106.563 150.212C106.401 150.498 106.18 150.746 105.916 150.941C105.651 151.136 105.349 151.274 105.028 151.344L83.1835 156.15C83.0162 156.187 82.8453 156.206 82.6739 156.206Z" fill="#CCCCCC"/>
<path d="M89.2941 184.585C89.3993 184.039 89.3835 183.476 89.2478 182.937C89.1121 182.398 88.8597 181.894 88.5085 181.463C88.1573 181.032 87.7159 180.683 87.2152 180.44C86.7145 180.198 86.1668 180.069 85.6106 180.061L81.3548 167.228L77.0051 172.746L81.7134 184.086C81.7624 185.021 82.1528 185.906 82.8105 186.573C83.4683 187.239 84.3477 187.641 85.2821 187.703C86.2166 187.764 87.1411 187.481 87.8805 186.906C88.6199 186.332 89.1229 185.506 89.2941 184.585Z" fill="#FFB8B8"/>
<path d="M144.009 153.743C143.755 153.249 143.394 152.816 142.954 152.476C142.514 152.136 142.005 151.896 141.462 151.774C140.92 151.652 140.357 151.651 139.814 151.769C139.27 151.888 138.76 152.125 138.318 152.463L127.042 145.003L127.031 152.029L137.741 158.036C138.357 158.741 139.211 159.195 140.14 159.312C141.069 159.43 142.009 159.203 142.782 158.674C143.554 158.145 144.106 157.351 144.332 156.442C144.559 155.533 144.444 154.573 144.009 153.743H144.009Z" fill="#FFB8B8"/>
<path d="M80.3716 178.656C79.8784 178.656 79.3978 178.501 78.998 178.212C78.5983 177.923 78.2997 177.516 78.1449 177.047L68.1681 155.942C67.7589 154.706 67.5505 153.411 67.5508 152.109L70.5503 124.677C70.5502 123.141 71.1363 121.663 72.1889 120.545C73.2415 119.426 74.6813 118.752 76.2144 118.659C77.7474 118.566 79.2581 119.062 80.4381 120.045C81.618 121.028 82.3782 122.425 82.5635 123.949L77.9743 155.26L85.2976 174.477C85.4134 174.988 85.3543 175.524 85.1296 175.997C84.905 176.471 84.5278 176.855 84.0586 177.089L81.42 178.409C81.0945 178.572 80.7355 178.656 80.3716 178.656Z" fill="#CCCCCC"/>
<path d="M133.655 156.514C133.288 156.514 132.926 156.428 132.598 156.262L112.757 146.24C111.594 145.654 110.533 144.884 109.613 143.961L90.2478 124.532C89.1636 123.445 88.5354 121.984 88.4915 120.449C88.4476 118.914 88.9912 117.42 90.0115 116.272C91.0318 115.124 92.4517 114.409 93.9814 114.272C95.5111 114.135 97.0353 114.588 98.2428 115.537L119.221 138.835L135.85 149.393C136.293 149.673 136.629 150.094 136.804 150.588C136.979 151.082 136.984 151.621 136.816 152.118L135.879 154.915C135.722 155.381 135.424 155.786 135.025 156.073C134.626 156.36 134.147 156.514 133.655 156.514L133.655 156.514Z" fill="#CCCCCC"/>
<path d="M69.0505 91.5839C71.1363 94.3124 74.1344 96.199 77.4968 96.8987C80.905 97.603 84.452 97.0948 87.5253 95.4619C89.9982 94.1257 91.9771 92.1204 93.9153 90.146C94.7242 89.322 95.5858 88.3718 95.5451 87.2477C95.482 85.5062 93.3883 84.554 91.5914 84.1742C85.6929 82.9437 79.5555 83.6339 74.0777 86.1438C71.6381 87.277 69.0962 89.3272 69.4626 91.8758" fill="#2F2E41"/>
<path d="M391.5 95H150.5C148.247 95.0044 146.086 96.2351 144.493 98.4224C142.9 100.61 142.003 103.575 142 106.668V234.332C142.003 237.425 142.9 240.39 144.493 242.578C146.086 244.765 148.247 245.996 150.5 246H391.5C393.753 245.996 395.914 244.765 397.507 242.578C399.1 240.39 399.997 237.425 400 234.332V106.668C399.997 103.575 399.1 100.61 397.507 98.4224C395.914 96.2351 393.753 95.0044 391.5 95ZM399 234.332C398.998 237.061 398.207 239.678 396.801 241.608C395.395 243.538 393.488 244.624 391.5 244.627H150.5C148.512 244.624 146.605 243.538 145.199 241.608C143.793 239.678 143.002 237.061 143 234.332V106.668C143.002 103.939 143.793 101.322 145.199 99.3919C146.605 97.4618 148.512 96.376 150.5 96.3727H391.5C393.488 96.376 395.395 97.4618 396.801 99.3919C398.207 101.322 398.998 103.939 399 106.668V234.332Z" fill="#3F3D56"/>
<path d="M369.998 131.203H254.515C252.901 131.204 251.35 131.829 250.187 132.948C249.024 134.068 248.339 135.594 248.276 137.207C248.268 137.288 248.265 137.37 248.266 137.452C248.269 139.108 248.928 140.696 250.099 141.868C251.271 143.039 252.859 143.698 254.515 143.701H369.998C371.655 143.701 373.245 143.042 374.416 141.87C375.588 140.699 376.247 139.109 376.247 137.452C376.247 135.794 375.588 134.205 374.416 133.033C373.245 131.861 371.655 131.203 369.998 131.203Z" fill="#2e7894"/>
<path d="M369.998 155.699H254.515C252.901 155.7 251.35 156.325 250.187 157.445C249.024 158.564 248.339 160.09 248.276 161.703C248.268 161.784 248.265 161.866 248.266 161.948C248.269 163.604 248.928 165.193 250.099 166.364C251.271 167.535 252.859 168.194 254.515 168.197H369.998C371.655 168.197 373.245 167.538 374.416 166.367C375.588 165.195 376.247 163.605 376.247 161.948C376.247 160.29 375.588 158.701 374.416 157.529C373.245 156.357 371.655 155.699 369.998 155.699Z" fill="#2e7894"/>
<path d="M191.053 162.369C190.244 162.37 189.457 162.109 188.809 161.624L188.769 161.593L180.319 155.123C179.927 154.823 179.599 154.449 179.352 154.023C179.105 153.596 178.945 153.124 178.88 152.636C178.815 152.147 178.848 151.65 178.975 151.174C179.102 150.698 179.322 150.251 179.622 149.86C179.922 149.468 180.296 149.14 180.723 148.893C181.149 148.646 181.621 148.486 182.109 148.421C182.598 148.356 183.095 148.389 183.571 148.516C184.048 148.643 184.494 148.863 184.886 149.163L190.359 153.36L203.295 136.49C203.595 136.099 203.969 135.771 204.396 135.524C204.823 135.277 205.294 135.117 205.783 135.053C206.271 134.988 206.768 135.021 207.244 135.148C207.721 135.276 208.167 135.496 208.558 135.796L208.478 135.905L208.561 135.797C209.35 136.404 209.866 137.299 209.996 138.285C210.127 139.272 209.86 140.271 209.255 141.061L194.04 160.904C193.689 161.361 193.236 161.731 192.718 161.985C192.2 162.239 191.63 162.371 191.053 162.369Z" fill="#2e7894"/>
<path d="M190.971 270.681H0.499924C0.367336 270.681 0.240178 270.629 0.146424 270.535C0.05267 270.441 0 270.314 0 270.182C0 270.049 0.05267 269.922 0.146424 269.828C0.240178 269.734 0.367336 269.682 0.499924 269.682H190.971C191.103 269.682 191.231 269.734 191.324 269.828C191.418 269.922 191.471 270.049 191.471 270.182C191.471 270.314 191.418 270.441 191.324 270.535C191.231 270.629 191.103 270.681 190.971 270.681Z" fill="#3F3D56"/>
<path d="M341.577 72.1865C331.133 70.7501 320.527 70.9892 310.159 72.8949C299.821 74.7848 289.841 78.2742 280.577 83.2375C275.371 86.0349 270.43 89.2993 265.815 92.9907C265.061 93.593 266.128 94.648 266.875 94.0512C274.974 87.6091 284.052 82.5059 293.765 78.9357C303.401 75.3718 313.529 73.317 323.792 72.8441C329.6 72.5774 335.419 72.8413 341.178 73.6327C341.37 73.6786 341.571 73.65 341.743 73.5528C341.914 73.4556 342.042 73.2969 342.101 73.109C342.152 72.9172 342.126 72.7128 342.028 72.5402C341.93 72.3675 341.768 72.2404 341.577 72.1865H341.577Z" fill="white"/>
<g clip-path="url(#clip1_2029_12079)">
<path d="M296 215.818C296 212.867 298.16 210.663 301.216 210.663C304.248 210.663 306.472 212.867 306.472 215.859C306.472 218.79 304.329 220.973 301.112 220.973H298.628V224.855C298.628 224.997 298.608 225.015 298.468 225.015H296.16C296.018 225.015 296 224.995 296 224.855V215.818ZM303.844 215.838C303.844 214.28 302.874 213.089 301.216 213.089C299.536 213.089 298.628 214.282 298.628 215.818V218.548H301.114C302.874 218.548 303.844 217.395 303.844 215.838Z" fill="#0E0E11"/>
<path d="M314.121 210.663C311.027 210.663 308.824 212.927 308.824 215.98C308.824 218.871 310.805 221.176 314.282 221.176C315.617 221.176 316.89 220.832 317.802 220.104C317.819 220.089 317.831 220.069 317.834 220.047C317.838 220.025 317.834 220.002 317.822 219.983L316.59 218.406C316.568 218.379 316.537 218.362 316.503 218.358C316.469 218.354 316.434 218.364 316.407 218.385C315.783 218.755 315.071 218.951 314.346 218.952C312.526 218.952 311.718 218.163 311.434 217.052H318.773C318.798 217.054 318.824 217.051 318.848 217.043C318.872 217.035 318.895 217.022 318.914 217.005C318.933 216.988 318.948 216.967 318.958 216.943C318.969 216.92 318.975 216.895 318.975 216.869C318.995 216.728 319.015 216.202 319.015 215.879C319.013 212.765 317.113 210.663 314.121 210.663ZM311.371 215.151C311.594 213.696 312.483 212.806 314.019 212.806C315.596 212.806 316.486 213.736 316.668 215.151H311.371Z" fill="#0E0E11"/>
<path d="M326.011 210.663C326.982 210.663 327.691 210.903 327.931 211.169C327.972 211.209 327.972 211.249 327.931 211.329L327.103 213.169C327.063 213.249 327.023 213.269 326.961 213.269C326.86 213.269 326.618 213.189 326.234 213.189C324.859 213.189 324.171 214.201 324.171 215.615V220.815C324.171 220.957 324.151 220.975 324.011 220.975H321.705C321.563 220.975 321.545 220.955 321.545 220.815V215.215C321.543 212.462 323.383 210.663 326.011 210.663Z" fill="#0E0E11"/>
<path d="M338.262 218.002C338.262 219.72 336.907 221.257 334.097 221.257C331.813 221.257 330.417 220.246 329.831 219.519C329.813 219.496 329.802 219.468 329.802 219.439C329.802 219.409 329.813 219.381 329.831 219.359L330.842 217.782C330.862 217.742 330.943 217.742 330.984 217.782C331.691 218.449 332.642 219.217 334.097 219.217C335.047 219.217 335.512 218.897 335.512 218.348C335.512 217.883 335.148 217.559 332.662 216.892C330.32 216.263 329.771 214.929 329.771 213.838C329.771 212.119 331.126 210.583 333.935 210.583C336.22 210.583 337.615 211.594 338.201 212.321C338.22 212.343 338.23 212.372 338.23 212.401C338.23 212.43 338.22 212.459 338.201 212.481L337.19 214.06C337.17 214.1 337.089 214.1 337.049 214.06C336.341 213.393 335.391 212.62 333.935 212.62C332.985 212.62 332.52 212.944 332.52 213.49C332.52 213.955 332.884 214.279 335.37 214.946C337.716 215.576 338.262 216.911 338.262 218.002Z" fill="#0E0E11"/>
<path d="M340.586 215.92C340.586 212.968 342.79 210.663 345.862 210.663C348.895 210.663 351.098 212.968 351.098 215.92C351.098 218.891 348.895 221.176 345.862 221.176C342.79 221.176 340.586 218.891 340.586 215.92ZM345.84 218.749C347.52 218.749 348.468 217.497 348.468 215.94C348.468 214.383 347.52 213.089 345.84 213.089C344.16 213.089 343.212 214.383 343.212 215.94C343.212 217.497 344.165 218.749 345.84 218.749Z" fill="#0E0E11"/>
<path d="M353.625 220.812V215.616C353.625 212.725 355.141 210.663 358.397 210.663C361.368 210.663 363.127 212.381 363.127 215.616V220.816C363.127 220.957 363.106 220.976 362.967 220.976H360.661C360.519 220.976 360.501 220.956 360.501 220.816V216.021C360.501 214.403 359.995 213.19 358.377 213.19C356.76 213.19 356.255 214.403 356.255 216.021V220.812C356.255 220.953 356.235 220.972 356.095 220.972H353.787C353.645 220.973 353.625 220.953 353.625 220.812Z" fill="#0E0E11"/>
<path d="M375.84 220.973H370.968C367.895 220.973 365.688 218.79 365.688 215.838C365.688 212.867 367.912 210.663 370.888 210.663C373.84 210.663 376 212.867 376 215.818V220.812C376 220.953 375.98 220.973 375.84 220.973ZM370.968 218.548H373.374V215.818C373.374 214.282 372.464 213.089 370.887 213.089C369.287 213.089 368.319 214.282 368.319 215.838C368.319 217.394 369.268 218.548 370.966 218.548H370.968Z" fill="#0E0E11"/>
</g>
<path d="M210.44 221V210.504H213.432C214.019 210.504 214.552 210.557 215.032 210.664C215.523 210.771 215.939 210.947 216.28 211.192C216.621 211.427 216.888 211.741 217.08 212.136C217.272 212.531 217.368 213.016 217.368 213.592C217.368 214.147 217.272 214.627 217.08 215.032C216.899 215.437 216.637 215.773 216.296 216.04C215.955 216.307 215.544 216.509 215.064 216.648C214.595 216.776 214.072 216.84 213.496 216.84H211.768V221H210.44ZM211.768 215.752H213.336C214.253 215.752 214.931 215.581 215.368 215.24C215.816 214.888 216.04 214.339 216.04 213.592C216.04 212.835 215.805 212.312 215.336 212.024C214.877 211.725 214.189 211.576 213.272 211.576H211.768V215.752ZM222.008 221.192C221.528 221.192 221.069 221.101 220.632 220.92C220.205 220.739 219.827 220.477 219.496 220.136C219.165 219.784 218.899 219.357 218.696 218.856C218.504 218.344 218.408 217.768 218.408 217.128C218.408 216.477 218.504 215.901 218.696 215.4C218.899 214.888 219.165 214.456 219.496 214.104C219.827 213.752 220.205 213.485 220.632 213.304C221.069 213.123 221.528 213.032 222.008 213.032C222.488 213.032 222.941 213.123 223.368 213.304C223.805 213.485 224.189 213.752 224.52 214.104C224.851 214.456 225.112 214.888 225.304 215.4C225.507 215.901 225.608 216.477 225.608 217.128C225.608 217.768 225.507 218.344 225.304 218.856C225.112 219.357 224.851 219.784 224.52 220.136C224.189 220.477 223.805 220.739 223.368 220.92C222.941 221.101 222.488 221.192 222.008 221.192ZM222.008 220.104C222.339 220.104 222.643 220.035 222.92 219.896C223.197 219.747 223.432 219.544 223.624 219.288C223.827 219.021 223.981 218.707 224.088 218.344C224.195 217.981 224.248 217.576 224.248 217.128C224.248 216.68 224.195 216.275 224.088 215.912C223.981 215.539 223.827 215.219 223.624 214.952C223.432 214.685 223.197 214.483 222.92 214.344C222.643 214.195 222.339 214.12 222.008 214.12C221.677 214.12 221.373 214.195 221.096 214.344C220.819 214.483 220.579 214.685 220.376 214.952C220.184 215.219 220.035 215.539 219.928 215.912C219.821 216.275 219.768 216.68 219.768 217.128C219.768 217.576 219.821 217.981 219.928 218.344C220.035 218.707 220.184 219.021 220.376 219.288C220.579 219.544 220.819 219.747 221.096 219.896C221.373 220.035 221.677 220.104 222.008 220.104ZM228.825 221L226.665 213.224H228.009L229.161 217.72C229.247 218.093 229.327 218.456 229.401 218.808C229.476 219.16 229.551 219.517 229.625 219.88H229.689C229.775 219.517 229.86 219.16 229.945 218.808C230.031 218.445 230.121 218.083 230.217 217.72L231.417 213.224H232.697L233.913 217.72C234.009 218.093 234.1 218.456 234.185 218.808C234.281 219.16 234.372 219.517 234.457 219.88H234.521C234.607 219.517 234.687 219.16 234.761 218.808C234.836 218.456 234.916 218.093 235.001 217.72L236.137 213.224H237.385L235.305 221H233.705L232.585 216.824C232.489 216.451 232.399 216.083 232.313 215.72C232.239 215.357 232.153 214.979 232.057 214.584H231.993C231.908 214.979 231.823 215.363 231.737 215.736C231.652 216.099 231.556 216.467 231.449 216.84L230.361 221H228.825ZM242.167 221.192C241.644 221.192 241.154 221.101 240.695 220.92C240.247 220.728 239.852 220.461 239.511 220.12C239.18 219.768 238.919 219.341 238.727 218.84C238.535 218.339 238.439 217.768 238.439 217.128C238.439 216.488 238.535 215.917 238.727 215.416C238.93 214.904 239.191 214.472 239.511 214.12C239.842 213.768 240.215 213.501 240.631 213.32C241.047 213.128 241.479 213.032 241.927 213.032C242.418 213.032 242.855 213.117 243.239 213.288C243.634 213.459 243.959 213.704 244.215 214.024C244.482 214.344 244.684 214.728 244.823 215.176C244.962 215.624 245.031 216.125 245.031 216.68C245.031 216.819 245.026 216.957 245.015 217.096C245.015 217.224 245.004 217.336 244.983 217.432H239.735C239.788 218.264 240.044 218.925 240.503 219.416C240.972 219.896 241.58 220.136 242.327 220.136C242.7 220.136 243.042 220.083 243.351 219.976C243.671 219.859 243.975 219.709 244.263 219.528L244.727 220.392C244.386 220.605 244.007 220.792 243.591 220.952C243.175 221.112 242.7 221.192 242.167 221.192ZM239.719 216.488H243.879C243.879 215.699 243.708 215.101 243.367 214.696C243.036 214.28 242.567 214.072 241.959 214.072C241.682 214.072 241.415 214.125 241.159 214.232C240.914 214.339 240.69 214.499 240.487 214.712C240.284 214.915 240.114 215.165 239.975 215.464C239.847 215.763 239.762 216.104 239.719 216.488ZM246.953 221V213.224H248.041L248.153 214.632H248.201C248.467 214.141 248.787 213.752 249.161 213.464C249.545 213.176 249.961 213.032 250.409 213.032C250.718 213.032 250.995 213.085 251.241 213.192L250.985 214.344C250.857 214.301 250.739 214.269 250.633 214.248C250.526 214.227 250.393 214.216 250.233 214.216C249.902 214.216 249.555 214.349 249.193 214.616C248.841 214.883 248.531 215.347 248.265 216.008V221H246.953ZM255.495 221.192C254.973 221.192 254.482 221.101 254.023 220.92C253.575 220.728 253.181 220.461 252.839 220.12C252.509 219.768 252.247 219.341 252.055 218.84C251.863 218.339 251.767 217.768 251.767 217.128C251.767 216.488 251.863 215.917 252.055 215.416C252.258 214.904 252.519 214.472 252.839 214.12C253.17 213.768 253.543 213.501 253.959 213.32C254.375 213.128 254.807 213.032 255.255 213.032C255.746 213.032 256.183 213.117 256.567 213.288C256.962 213.459 257.287 213.704 257.543 214.024C257.81 214.344 258.013 214.728 258.151 215.176C258.29 215.624 258.359 216.125 258.359 216.68C258.359 216.819 258.354 216.957 258.343 217.096C258.343 217.224 258.333 217.336 258.311 217.432H253.063C253.117 218.264 253.373 218.925 253.831 219.416C254.301 219.896 254.909 220.136 255.655 220.136C256.029 220.136 256.37 220.083 256.679 219.976C256.999 219.859 257.303 219.709 257.591 219.528L258.055 220.392C257.714 220.605 257.335 220.792 256.919 220.952C256.503 221.112 256.029 221.192 255.495 221.192ZM253.047 216.488H257.207C257.207 215.699 257.037 215.101 256.695 214.696C256.365 214.28 255.895 214.072 255.287 214.072C255.01 214.072 254.743 214.125 254.487 214.232C254.242 214.339 254.018 214.499 253.815 214.712C253.613 214.915 253.442 215.165 253.303 215.464C253.175 215.763 253.09 216.104 253.047 216.488ZM262.937 221.192C261.955 221.192 261.171 220.84 260.585 220.136C260.009 219.432 259.721 218.429 259.721 217.128C259.721 216.499 259.811 215.933 259.993 215.432C260.185 214.92 260.435 214.488 260.745 214.136C261.054 213.784 261.411 213.512 261.817 213.32C262.222 213.128 262.649 213.032 263.097 213.032C263.545 213.032 263.934 213.112 264.265 213.272C264.595 213.432 264.931 213.651 265.273 213.928L265.209 212.6V209.608H266.537V221H265.449L265.337 220.088H265.289C264.979 220.387 264.622 220.648 264.217 220.872C263.822 221.085 263.395 221.192 262.937 221.192ZM263.225 220.088C263.587 220.088 263.929 220.003 264.249 219.832C264.569 219.651 264.889 219.379 265.209 219.016V214.952C264.878 214.653 264.558 214.445 264.249 214.328C263.95 214.2 263.641 214.136 263.321 214.136C263.011 214.136 262.718 214.211 262.441 214.36C262.174 214.499 261.939 214.701 261.737 214.968C261.534 215.224 261.374 215.533 261.257 215.896C261.139 216.259 261.081 216.664 261.081 217.112C261.081 218.051 261.267 218.781 261.641 219.304C262.014 219.827 262.542 220.088 263.225 220.088ZM275.799 221.192C275.436 221.192 275.058 221.107 274.663 220.936C274.279 220.755 273.916 220.509 273.575 220.2H273.527L273.415 221H272.359V209.608H273.671V212.712L273.639 214.12C273.991 213.811 274.375 213.555 274.791 213.352C275.207 213.139 275.634 213.032 276.071 213.032C276.572 213.032 277.015 213.128 277.399 213.32C277.783 213.501 278.103 213.768 278.359 214.12C278.626 214.461 278.823 214.877 278.951 215.368C279.09 215.848 279.159 216.387 279.159 216.984C279.159 217.645 279.068 218.237 278.887 218.76C278.706 219.283 278.46 219.725 278.151 220.088C277.842 220.451 277.484 220.728 277.079 220.92C276.674 221.101 276.247 221.192 275.799 221.192ZM275.575 220.088C275.895 220.088 276.188 220.019 276.455 219.88C276.732 219.731 276.967 219.528 277.159 219.272C277.362 219.005 277.516 218.68 277.623 218.296C277.74 217.912 277.799 217.48 277.799 217C277.799 216.573 277.762 216.184 277.687 215.832C277.612 215.48 277.49 215.181 277.319 214.936C277.159 214.68 276.946 214.483 276.679 214.344C276.423 214.205 276.114 214.136 275.751 214.136C275.122 214.136 274.428 214.488 273.671 215.192V219.272C274.012 219.571 274.348 219.784 274.679 219.912C275.02 220.029 275.319 220.088 275.575 220.088ZM281.268 224.344C281.087 224.344 280.921 224.328 280.772 224.296C280.623 224.275 280.484 224.237 280.356 224.184L280.612 223.144C280.697 223.165 280.793 223.187 280.9 223.208C281.007 223.24 281.108 223.256 281.204 223.256C281.652 223.256 282.015 223.096 282.292 222.776C282.58 222.467 282.804 222.072 282.964 221.592L283.14 221.016L280.02 213.224H281.38L282.964 217.528C283.081 217.869 283.204 218.232 283.332 218.616C283.471 218.989 283.599 219.357 283.716 219.72H283.78C283.897 219.368 284.009 219 284.116 218.616C284.223 218.232 284.329 217.869 284.436 217.528L285.828 213.224H287.108L284.18 221.64C284.041 222.024 283.887 222.381 283.716 222.712C283.545 223.043 283.343 223.325 283.108 223.56C282.873 223.805 282.607 223.997 282.308 224.136C282.009 224.275 281.663 224.344 281.268 224.344Z" fill="#141216" fill-opacity="0.4"/>
</g>
<defs>
<clipPath id="clip0_2029_12079">
<rect width="400" height="270.681" fill="white"/>
</clipPath>
<clipPath id="clip1_2029_12079">
<rect width="80" height="16" fill="white" transform="translate(296 209)"/>
</clipPath>
</defs>
</svg>
